<?xml version="1.0" encoding="UTF-8"?>
<svg version="1.1" xmlns="http://www.w3.org/2000/svg" width="2000" height="2000">
<path d="M0 0 C660 0 1320 0 2000 0 C2000 660 2000 1320 2000 2000 C1340 2000 680 2000 0 2000 C0 1340 0 680 0 0 Z " fill="#FEFEFE" transform="translate(0,0)"/>
<path d="M0 0 C1.14355453 -0.0033284 2.28710907 -0.0066568 3.46531677 -0.01008606 C5.87978721 -0.01512302 8.29426454 -0.01749539 10.70874023 -0.01733398 C14.30920721 -0.01949412 17.90935375 -0.03761175 21.50976562 -0.05664062 C44.17934909 -0.11410287 66.47972231 1.44884391 88.87109375 4.98046875 C89.7209082 5.11180206 90.57072266 5.24313538 91.44628906 5.37844849 C113.01849761 8.71292458 134.00058832 12.82884541 154.88085938 19.27392578 C157.75051094 20.15023199 160.62836459 20.99033117 163.51171875 21.8203125 C202.23089302 33.07061339 240.56516663 49.84045797 274.80859375 71.16796875 C275.65341309 71.6897168 276.49823242 72.21146484 277.36865234 72.74902344 C295.32524059 83.86882599 312.32508068 95.97701671 328.80859375 109.16796875 C329.7109375 109.87566406 330.61328125 110.58335937 331.54296875 111.3125 C336.60071943 115.29430061 341.44280059 119.4508328 346.19140625 123.796875 C348.32324141 125.72825402 350.47512471 127.62698993 352.64453125 129.515625 C370.08584092 144.7497673 386.01168598 161.36574451 400.80859375 179.16796875 C401.32486328 179.78462402 401.84113281 180.4012793 402.37304688 181.03662109 C418.87360961 200.79018056 433.70480819 222.0138353 446.80859375 244.16796875 C447.4413623 245.23047852 447.4413623 245.23047852 448.08691406 246.31445312 C468.9265998 281.47316183 486.25245734 319.37202119 497.15234375 358.83544922 C497.65877404 360.63546225 498.18308129 362.4304518 498.71484375 364.22314453 C501.32282251 373.08901848 503.42678196 382.00269316 505.30859375 391.04296875 C505.45889038 391.75995941 505.60918701 392.47695007 505.76403809 393.21566772 C510.40761834 415.41943613 513.70949525 437.57219465 515.80859375 460.16796875 C515.90648193 461.10809814 516.00437012 462.04822754 516.10522461 463.0168457 C517.08625018 473.528084 516.99466462 484.07261997 516.99389648 494.61987305 C516.99606393 497.93486758 517.01421837 501.249518 517.03320312 504.56445312 C517.07224179 519.19504434 516.31598717 533.61630968 514.80859375 548.16796875 C514.73289154 548.90348969 514.65718933 549.63901062 514.57919312 550.39682007 C507.95945268 613.22798169 490.20199853 672.63640374 461.80859375 729.16796875 C461.41075684 729.96090332 461.01291992 730.75383789 460.60302734 731.57080078 C445.26254097 761.88604888 425.92720369 790.3082451 404.24853516 816.42382812 C402.22104977 818.87963612 400.23853679 821.37119743 398.24609375 823.85546875 C393.55857318 829.57424385 388.55301679 834.96918003 383.49560547 840.35888672 C381.65088539 842.33708872 379.82471749 844.33146386 378 846.328125 C376.72793904 847.71230801 375.45580495 849.09642383 374.18359375 850.48046875 C373.57942627 851.14530273 372.97525879 851.81013672 372.3527832 852.49511719 C371.78906006 853.10516602 371.22533691 853.71521484 370.64453125 854.34375 C370.1448584 854.88942627 369.64518555 855.43510254 369.13037109 855.99731445 C367.80859375 857.16796875 367.80859375 857.16796875 365.80859375 857.16796875 C365.80859375 857.82796875 365.80859375 858.48796875 365.80859375 859.16796875 C364.3046875 860.6484375 364.3046875 860.6484375 362.24609375 862.35546875 C359.53376762 864.65525577 356.95892732 866.9785134 354.49609375 869.54296875 C350.77386162 873.33303199 346.68345201 876.60084655 342.546875 879.92578125 C340.16187945 881.87868774 337.88679288 883.89238657 335.62109375 885.98046875 C329.73934976 891.25735254 323.36677511 895.88408875 317.00292969 900.55615234 C315.54279706 901.62867077 314.08509788 902.70451017 312.62988281 903.78369141 C301.35491882 912.14306342 289.80935954 919.88963221 277.80859375 927.16796875 C276.90931152 927.71565918 276.0100293 928.26334961 275.08349609 928.82763672 C251.6650038 943.01146521 227.33885266 955.26233775 201.80859375 965.16796875 C200.66729004 965.61237305 199.52598633 966.05677734 198.35009766 966.51464844 C166.03583219 978.98651484 132.56008836 989.03040309 98.19018555 993.82446289 C95.3290606 994.2371336 92.47607586 994.69524865 89.62109375 995.1484375 C82.80563054 996.20000843 75.9777094 997.00120575 69.12109375 997.73046875 C67.99509766 997.85615234 66.86910156 997.98183594 65.70898438 998.11132812 C49.52011498 999.84942484 33.33236429 1000.40676746 17.05859375 1000.41796875 C15.71030487 1000.41898087 15.71030487 1000.41898087 14.33477783 1000.42001343 C-21.36617859 1000.37810262 -57.00828761 996.80085985 -91.82080078 988.71142578 C-94.40675423 988.11860061 -96.99966283 987.56391567 -99.59375 987.0078125 C-138.21462061 978.48807617 -174.91523723 963.85375599 -210.19140625 946.16796875 C-211.5671582 945.48202637 -211.5671582 945.48202637 -212.97070312 944.78222656 C-245.56954177 928.4357331 -276.37289127 907.55457413 -304.0625 883.82421875 C-306.95155921 881.35423773 -309.90912714 878.97795051 -312.87890625 876.60546875 C-317.50826657 872.84411349 -321.68624129 868.77574425 -325.8515625 864.51171875 C-327.93986845 862.41992648 -330.07399622 860.46628339 -332.31640625 858.54296875 C-338.4198832 853.29913644 -343.92550217 847.57969328 -349.16015625 841.4765625 C-351.19285136 839.16632633 -353.28951218 836.92442342 -355.39941406 834.68481445 C-361.6148874 828.06685084 -367.26478797 821.15444071 -372.79394531 813.95947266 C-374.20041821 812.15641569 -375.6379412 810.38381441 -377.08984375 808.6171875 C-385.08496873 798.87275818 -392.22242072 788.66558249 -399.19140625 778.16796875 C-399.65901367 777.46978027 -400.12662109 776.7715918 -400.60839844 776.05224609 C-419.71604161 747.47331974 -435.58125703 717.14121609 -448.19140625 685.16796875 C-448.63581055 684.06437012 -449.08021484 682.96077148 -449.53808594 681.82373047 C-459.12619647 657.96751844 -466.73056446 633.4806116 -471.77197266 608.24316406 C-472.21853092 606.03376637 -472.69387432 603.83170434 -473.171875 601.62890625 C-476.23952366 587.25040718 -478.35339062 572.7499411 -480.19140625 558.16796875 C-480.34528809 556.97816406 -480.49916992 555.78835938 -480.65771484 554.5625 C-486.21158612 510.13152979 -484.40226128 464.27425228 -477.19140625 420.16796875 C-477.03945801 419.22083008 -476.88750977 418.27369141 -476.73095703 417.29785156 C-462.87689958 332.15280456 -426.04802189 249.14425543 -370.19140625 183.16796875 C-369.3223677 182.12545738 -368.45390777 181.08246347 -367.5859375 180.0390625 C-361.77247726 173.07739214 -355.7681197 166.32666197 -349.59179688 159.68603516 C-348.17878871 158.15429095 -346.78489112 156.60699819 -345.39453125 155.0546875 C-338.02230162 146.86681228 -330.15806278 139.31071457 -322.04101562 131.86474609 C-320.39307947 130.35297784 -318.75199778 128.83424308 -317.11328125 127.3125 C-310.99991031 121.67946535 -304.69701673 116.34057253 -298.19140625 111.16796875 C-297.57475098 110.67345215 -296.9580957 110.17893555 -296.32275391 109.66943359 C-270.05550087 88.65181787 -241.93845993 70.82715475 -212.19140625 55.16796875 C-211.33853027 54.71357422 -210.4856543 54.25917969 -209.60693359 53.79101562 C-186.92057901 41.76201205 -162.65549521 31.95429934 -138.19140625 24.16796875 C-137.21026855 23.85553223 -136.22913086 23.5430957 -135.21826172 23.22119141 C-98.59413644 11.70145352 -61.39186032 4.70540947 -23.19140625 1.16796875 C-22.39854721 1.08463791 -21.60568817 1.00130707 -20.7888031 0.91545105 C-13.84507636 0.21809008 -6.97609609 0.00729127 0 0 Z " fill="#DB0018" transform="translate(979.19140625,503.83203125)"/>
<path d="M0 0 C2.46724678 0.0007299 4.93449319 0.00097633 7.40174007 0.00108671 C56.35426117 0.00442306 105.28174541 0.09841144 154.19837856 2.18822432 C155.46858852 2.24149885 156.73879848 2.29477339 158.04749966 2.3496623 C176.10915399 3.11404221 194.15489537 4.07766371 212.19837856 5.18822432 C213.39426601 5.26105635 214.59015347 5.33388838 215.82227993 5.40892744 C317.92698027 11.64784912 317.92698027 11.64784912 361.07337856 20.75072432 C362.01399136 20.94859541 362.95460415 21.1464665 363.92372036 21.35033369 C373.34833606 23.46153122 379.06462365 26.71348991 384.28822231 34.89525557 C393.95155816 52.70839273 397.60525658 75.21578444 397.76087856 95.18822432 C397.78275234 96.78887739 397.78275234 96.78887739 397.80506802 98.42186689 C397.71875057 105.01913521 396.92767122 110.61566806 393.19837856 116.18822432 C391.02684254 118.16719575 389.34823238 119.48046273 386.88587856 120.93822432 C386.24199184 121.34250654 385.59810513 121.74678877 384.93470669 122.16332197 C382.70847979 123.53995856 380.4585728 124.86812717 378.19837856 126.18822432 C377.34711391 126.68870283 376.49584927 127.18918135 375.61878872 127.70482588 C327.35894261 155.89475938 276.13665855 177.69546919 223.51087856 196.25072432 C222.38421276 196.64951292 222.38421276 196.64951292 221.23478603 197.05635786 C211.28078695 200.56930015 201.26389996 203.7166402 191.11942959 206.63100386 C188.32359495 207.44196423 185.54039381 208.29279288 182.75697231 209.14525557 C166.61102032 214.05691852 150.36080412 218.3248565 133.95960903 222.27855635 C130.56836713 223.09874117 127.18201712 223.93650871 123.79603481 224.77806807 C104.12337848 229.58037665 84.17107693 232.91151725 64.19837856 236.18822432 C63.10041958 236.37014326 62.00246059 236.55206221 60.87123013 236.73949385 C46.3176825 239.10056116 31.63456925 240.12358185 16.94007778 241.18724775 C16.1296603 241.2467964 15.31924282 241.30634504 14.48426723 241.36769819 C12.95096907 241.47968488 11.41744478 241.58863092 9.8836813 241.69405317 C6.56279867 241.93670548 3.39242907 242.21269639 0.19837856 243.18822432 C11.8056453 251.24734039 23.85291315 258.32428554 36.19837856 265.18822432 C37.08976528 265.68612471 37.981152 266.1840251 38.89955044 266.69701338 C45.29645542 270.26246333 51.72917053 273.75572259 58.19837856 277.18822432 C59.07107388 277.65132002 59.94376919 278.11441572 60.84290981 278.59154463 C93.44466604 295.72557874 128.05267225 310.46292342 162.89759731 322.36009932 C166.76961592 323.68444619 170.62150651 325.05684772 174.46790981 326.45384932 C207.16395558 338.3207063 240.38094954 348.8941108 273.94837856 358.02025557 C278.79900615 359.34088668 283.62844402 360.73535245 288.46107388 362.12010908 C292.10829077 363.16247738 295.75828801 364.19444996 299.40931606 365.22338057 C301.7973369 365.89916182 304.18535773 366.57494307 306.57337856 367.25072432 C307.778652 367.58910322 308.98392544 367.92748213 310.22572231 368.27611494 C326.76000424 372.9677855 326.76000424 372.9677855 330.26087856 375.93822432 C331.75314163 379.51965569 331.31244905 381.47465602 330.19837856 385.18822432 C328.16162835 388.16997967 325.76715152 390.65966699 323.19837856 393.18822432 C322.63248013 393.76443525 322.06658169 394.34064619 321.48353481 394.93431807 C311.57610935 404.3214411 299.15216648 410.31419429 286.19837856 414.18822432 C285.62982143 414.36635664 285.06126431 414.54448896 284.47547817 414.72801924 C273.73534369 416.89861573 262.41352496 414.87202944 251.94837856 412.37572432 C250.60394627 412.06693464 249.25929269 411.75910712 247.91444302 411.45214033 C243.3345217 410.39654251 238.76635975 409.29416717 234.19837856 408.18822432 C233.31543118 407.97560957 232.43248379 407.76299482 231.52278042 407.54393721 C224.80521689 405.92567337 218.09400054 404.28266037 211.38587856 402.62572432 C210.46987881 402.40065199 209.55387905 402.17557966 208.61012173 401.94368696 C197.36538391 399.17010779 186.30214206 396.06524437 175.28309536 392.49852705 C170.7281112 391.02485001 166.13278436 389.74538227 161.51087856 388.50072432 C147.52356072 384.60303798 133.86030623 379.69414406 120.16889858 374.87956953 C117.10681455 373.80525558 114.0408032 372.74223406 110.97572231 371.67650557 C65.09264336 355.61855718 20.83619723 335.52838804 -22.80162144 314.18822432 C-23.81563023 313.69290205 -24.82963902 313.19757978 -25.87437534 312.68724775 C-37.76243143 306.86296566 -49.45244294 300.74178332 -61.04380894 294.34838057 C-65.05407683 292.1382312 -69.0808627 289.96262998 -73.12193394 287.80931807 C-86.10877656 280.88688882 -98.9160302 273.73296823 -111.58677769 266.24681807 C-114.99922254 264.23835053 -118.41698405 262.24118563 -121.86021519 260.28588057 C-122.57363071 259.87990644 -123.28704624 259.47393232 -124.02208042 259.05565596 C-125.77130352 258.04216977 -125.77130352 258.04216977 -127.80162144 258.18822432 C-129.07871663 259.89694406 -129.07871663 259.89694406 -130.31334019 262.15697432 C-131.0675626 263.46057905 -131.0675626 263.46057905 -131.83702183 264.79051924 C-132.3822147 265.74676191 -132.92740757 266.70300459 -133.48912144 267.68822432 C-140.09038773 279.06622085 -146.99714237 290.22825526 -154.01451206 301.35326338 C-155.70337145 304.03236654 -157.38624886 306.71512102 -159.06724644 309.39916182 C-165.15508699 319.10430334 -171.37423168 328.70466158 -177.80162144 338.18822432 C-178.24360874 338.844196 -178.68559605 339.50016768 -179.14097691 340.17601728 C-204.14014902 377.24436727 -204.14014902 377.24436727 -215.80162144 380.18822432 C-227.40407782 382.00197346 -234.73256212 379.01333152 -244.54771519 373.43382978 C-248.78229679 371.09361798 -253.14763619 369.00878523 -257.48912144 366.87572432 C-267.26731126 362.04179223 -267.26731126 362.04179223 -271.80162144 359.18822432 C-271.37494175 358.44443525 -270.94826206 357.70064619 -270.50865269 356.93431807 C-266.69990153 350.28274645 -262.91330443 343.61930941 -259.14830112 336.94286299 C-254.59764013 328.87340807 -250.02628221 320.81883273 -245.36412144 312.81322432 C-239.23860684 302.28715088 -233.31488754 291.64912395 -227.380723 281.01439619 C-225.28004151 277.25473495 -223.16662805 273.5023375 -221.05162144 269.75072432 C-219.99391096 267.8698655 -218.9368926 265.98861997 -217.88023472 264.10716963 C-217.13742196 262.78564218 -216.39354439 261.46471287 -215.64878941 260.144279 C-210.34593185 250.73479494 -205.19901173 241.25061163 -200.17662144 231.68822432 C-199.64319126 230.67816328 -199.10976109 229.66810225 -198.56016636 228.6274333 C-198.07008091 227.68843184 -197.57999546 226.74943037 -197.07505894 225.78197432 C-196.63597202 224.94343916 -196.19688511 224.104904 -195.74449253 223.24095869 C-194.66248848 221.26180336 -194.66248848 221.26180336 -194.80162144 219.18822432 C-195.98240269 218.74091963 -197.16318394 218.29361494 -198.37974644 217.83275557 C-199.93734189 217.22285373 -201.49461701 216.61213337 -203.05162144 216.00072432 C-203.82892612 215.70875166 -204.60623081 215.416779 -205.40709019 215.11595869 C-210.91626569 212.92641458 -214.07530276 210.64086167 -216.80162144 205.18822432 C-217.7795295 193.06216438 -213.03219631 182.73141221 -205.80162144 173.18822432 C-196.61187258 162.63573703 -196.61187258 162.63573703 -190.47349644 161.91478682 C-184.09972891 161.67804688 -178.44646607 162.79442637 -172.33287144 164.53197432 C-169.75344567 165.3137054 -169.75344567 165.3137054 -166.80162144 165.18822432 C-158.94882215 149.5147623 -152.20511607 133.6054691 -145.97544956 117.23168135 C-144.90328702 114.45181898 -143.78415251 111.69681031 -142.64927769 108.94213057 C-140.80338896 104.35412373 -139.42925033 99.71799245 -138.17662144 94.93822432 C-137.76922897 93.41179178 -137.36040389 91.88574079 -136.95005894 90.36009932 C-136.7765189 89.70106611 -136.60297886 89.04203291 -136.42418003 88.363029 C-135.63562439 85.60834128 -134.71308381 82.90440707 -133.80162144 80.18822432 C-193.17692985 82.11953769 -252.48744722 84.88142938 -311.80162144 88.18822432 C-312.52773121 88.22860067 -313.25384098 88.26897703 -314.00195408 88.31057692 C-341.58504032 89.84473084 -369.13001382 91.7349024 -396.66954136 93.91893721 C-397.74789753 94.00332045 -398.8262537 94.08770369 -399.93728733 94.17464399 C-401.94225329 94.33175947 -403.94700581 94.49163548 -405.951478 94.65492964 C-411.58833472 95.09447008 -417.14741329 95.25926252 -422.80162144 95.18822432 C-422.22714427 70.62932557 -416.5595811 45.77797908 -398.77037144 27.62572432 C-392.81026821 23.27390291 -385.69371879 22.09542462 -378.61412144 20.62572432 C-377.64925816 20.41754072 -376.68439487 20.20935713 -375.69029331 19.99486494 C-364.79441579 17.67921875 -353.87307182 15.96189013 -342.80162144 14.75072432 C-341.08060215 14.56123213 -341.08060215 14.56123213 -339.3248148 14.36791182 C-325.77709758 12.9167876 -312.20019932 11.82964968 -298.6190958 10.7461772 C-293.75337311 10.35505136 -288.89243629 9.92746134 -284.03209019 9.47338057 C-239.26344854 5.36086363 -194.23232109 3.31851006 -149.30162144 2.00072432 C-148.0523386 1.96397596 -146.80305576 1.92722761 -145.51591587 1.88936567 C-138.48763563 1.68772084 -131.45899201 1.50764586 -124.42971325 1.34496832 C-120.59114629 1.2558603 -116.75278762 1.16170949 -112.91453648 1.05983686 C-75.27794676 0.06464355 -37.64685005 -0.01328721 0 0 Z " fill="#FEFDFD" transform="translate(1005.8016214370728,813.8117756843567)"/>
<path d="M0 0 C53.01229061 -0.23911895 105.95828281 -0.15988289 158.93556976 1.91915131 C161.01847829 2.00072366 163.10142788 2.08117411 165.18438721 2.16143799 C210.87712384 3.92944967 256.60433297 6.29101145 302 12 C298.84342872 15.4683314 295.32789512 17.83780462 291.3125 20.1875 C290.64951904 20.57768311 289.98653809 20.96786621 289.3034668 21.36987305 C287.20886524 22.59170351 285.10619874 23.79828567 283 25 C282.36964844 25.36254883 281.73929688 25.72509766 281.08984375 26.09863281 C233.58543803 53.14837532 177.05069314 68.63905524 124.01171875 80.33398438 C121.20277729 80.95515755 118.39835375 81.59396988 115.59375 82.234375 C62.80648185 94.02214756 8.99396437 98.39420506 -45 98 C-44.59652344 97.20464844 -44.19304688 96.40929687 -43.77734375 95.58984375 C-34.02724142 76.27543456 -24.48304201 56.83204193 -15.6875 37.0625 C-15.25727539 36.09658936 -14.82705078 35.13067871 -14.38378906 34.13549805 C-9.40954267 22.83401766 -4.72996628 11.40519604 0 0 Z " fill="#DB0018" transform="translate(965,893)"/>
<path d="M0 0 C87.31718656 -0.39385571 87.31718656 -0.39385571 130.1875 0.9375 C130.89782631 0.95938133 131.60815262 0.98126266 132.34000397 1.00380707 C149.89805335 1.54759715 167.45035465 2.23280154 185 3 C185 3.33 185 3.66 185 4 C177.76327281 4.02566112 170.52655763 4.0429953 163.28979492 4.05493164 C160.83536338 4.05991542 158.38093473 4.06670486 155.92651367 4.07543945 C152.36897052 4.08776937 148.8114671 4.09328794 145.25390625 4.09765625 C144.1823378 4.10281754 143.11076935 4.10797882 142.00672913 4.11329651 C136.09195026 4.11371804 130.22133426 3.9177973 124.3203125 3.52734375 C112.43357924 2.75629448 100.52834273 2.65719958 88.62109375 2.46484375 C86.11189757 2.42173996 83.60270675 2.37832333 81.09352112 2.33460999 C74.54579572 2.22136783 67.99800711 2.11232627 61.45019531 2.00421143 C54.74604348 1.89314213 48.04197345 1.77725288 41.33789062 1.66210938 C28.22532508 1.43748668 15.11269096 1.21717158 2 1 C2 1.99 2 2.98 2 4 C1.34 4 0.68 4 0 4 C-0.33 5.258125 -0.66 6.51625 -1 7.8125 C-1.185625 8.52019531 -1.37125 9.22789062 -1.5625 9.95703125 C-2.1047007 12.14070009 -2.1047007 12.14070009 -2 15 C-3.98 15.99 -3.98 15.99 -6 17 C-5.56808366 15.47757149 -5.12912438 13.95714081 -4.6875 12.4375 C-4.44386719 11.59058594 -4.20023438 10.74367188 -3.94921875 9.87109375 C-2.83007379 6.48602565 -1.41849029 3.26942661 0 0 Z " fill="#C51B2F" transform="translate(965,893)"/>
<path d="M0 0 C0.33 0.99 0.66 1.98 1 3 C0.67 3.66 0.34 4.32 0 5 C6.60209703 4.88220714 13.20403432 4.75737985 19.8059082 4.62768555 C22.05132032 4.58440167 24.29676396 4.54272199 26.54223633 4.50268555 C29.77174373 4.44482443 33.00109341 4.38117549 36.23046875 4.31640625 C37.23272995 4.29969376 38.23499115 4.28298126 39.2676239 4.26576233 C40.20822159 4.24581711 41.14881927 4.22587189 42.11791992 4.20532227 C42.94176682 4.18977798 43.76561371 4.1742337 44.61442566 4.15821838 C47.14715485 3.99024025 49.51908143 3.52417237 52 3 C53.54665547 2.92404744 55.09604781 2.89180985 56.64453125 2.90234375 C57.90620117 2.90717773 57.90620117 2.90717773 59.19335938 2.91210938 C60.48983398 2.92467773 60.48983398 2.92467773 61.8125 2.9375 C62.69615234 2.94201172 63.57980469 2.94652344 64.49023438 2.95117188 C66.66018559 2.96290134 68.83010172 2.98083505 71 3 C71 2.34 71 1.68 71 1 C74.04842865 0.09098061 76.59661636 -0.06173367 79.765625 0.12109375 C80.65507813 0.16943359 81.54453125 0.21777344 82.4609375 0.26757812 C83.38132812 0.32365234 84.30171875 0.37972656 85.25 0.4375 C86.18585938 0.48970703 87.12171875 0.54191406 88.0859375 0.59570312 C90.39098887 0.72506825 92.69557289 0.86002034 95 1 C95 1.33 95 1.66 95 2 C62.22566842 5.08350854 29.94251719 7.24051035 -3 7 C-2.01 4.69 -1.02 2.38 0 0 Z " fill="#C5182C" transform="translate(923,984)"/>
<path d="M0 0 C30.03 0 60.06 0 91 0 C91 0.33 91 0.66 91 1 C61.63 1 32.26 1 2 1 C2 1.99 2 2.98 2 4 C1.34 4 0.68 4 0 4 C-0.33 5.258125 -0.66 6.51625 -1 7.8125 C-1.185625 8.52019531 -1.37125 9.22789062 -1.5625 9.95703125 C-2.1047007 12.14070009 -2.1047007 12.14070009 -2 15 C-3.98 15.99 -3.98 15.99 -6 17 C-5.56808366 15.47757149 -5.12912438 13.95714081 -4.6875 12.4375 C-4.44386719 11.59058594 -4.20023438 10.74367188 -3.94921875 9.87109375 C-2.83677406 6.50629192 -1.39602157 3.25738366 0 0 Z " fill="#BE3545" transform="translate(965,893)"/>
<path d="M0 0 C-0.56499065 3.7157043 -1.11027278 6.72447281 -3 10 C-2.67 7.36 -2.34 4.72 -2 2 C-2.7118042 2.0707373 -3.4236084 2.14147461 -4.15698242 2.21435547 C-11.89268919 2.92815052 -19.54654401 3.15608825 -27.3125 3.125 C-29.07557495 3.12209961 -29.07557495 3.12209961 -30.87426758 3.11914062 C-39.28604449 3.07736892 -47.62394235 2.78569385 -56 2 C-56 1.67 -56 1.34 -56 1 C-37.32707301 0.32954349 -18.68835554 -0.1749342 0 0 Z " fill="#CE2C40" transform="translate(872,894)"/>
<path d="M0 0 C3.14581423 -0.02888514 6.29159469 -0.04675923 9.4375 -0.0625 C10.33533203 -0.07087891 11.23316406 -0.07925781 12.15820312 -0.08789062 C13.01220703 -0.09111328 13.86621094 -0.09433594 14.74609375 -0.09765625 C15.93223267 -0.10551147 15.93223267 -0.10551147 17.14233398 -0.11352539 C19 0 19 0 20 1 C22.08778154 1.27727164 24.18378068 1.49297952 26.28125 1.68359375 C27.59150146 1.80565186 28.90175293 1.92770996 30.25170898 2.0534668 C31.29402176 2.14765396 31.29402176 2.14765396 32.35739136 2.2437439 C35.90709321 2.56474344 39.45547233 2.89969349 43.00390625 3.234375 C43.69944107 3.29968918 44.39497589 3.36500336 45.11158752 3.43229675 C52.75792932 4.15592513 60.3803082 5.03763179 68 6 C64.1690889 8.63907209 60.61549877 7.89642997 56.2578125 7.2890625 C54.63324566 7.08540253 53.00856476 6.88265102 51.38378906 6.68066406 C50.51419556 6.56903931 49.64460205 6.45741455 48.74865723 6.34240723 C43.89901773 5.73827529 39.03896299 5.23069255 34.1796875 4.7109375 C32.14189229 4.48990389 30.10413204 4.2685477 28.06640625 4.046875 C26.0026047 3.82291177 23.93880261 3.59895349 21.875 3.375 C19.74088321 3.14324952 17.60676861 2.91147881 15.47265625 2.6796875 C10.31512939 2.11955915 5.15757316 1.55970191 0 1 C0 0.67 0 0.34 0 0 Z " fill="#C71F33" transform="translate(1280,823)"/>
<path d="M0 0 C-3.6019927 2.22423049 -6.82169771 2.35447012 -11 2.5625 C-15.45510693 2.71084113 -15.45510693 2.71084113 -19.81518555 3.49780273 C-22.65226954 4.14992943 -25.35975774 4.20166356 -28.26953125 4.28125 C-29.48833984 4.31863281 -30.70714844 4.35601563 -31.96289062 4.39453125 C-33.23326172 4.42933594 -34.50363281 4.46414063 -35.8125 4.5 C-38.31911282 4.56930727 -40.82563168 4.64211786 -43.33203125 4.71875 C-44.44296143 4.74904297 -45.5538916 4.77933594 -46.69848633 4.81054688 C-50.17582659 5.01008958 -53.56016155 5.46178472 -57 6 C-57 5.01 -57 4.02 -57 3 C-50.16834671 2.56927068 -43.33645767 2.14244021 -36.50439453 1.71826172 C-34.18239891 1.57364251 -31.86045777 1.42814567 -29.53857422 1.28173828 C-26.1925239 1.07090699 -22.84628744 0.86327946 -19.5 0.65625 C-18.4694751 0.59062866 -17.4389502 0.52500732 -16.37719727 0.45739746 C-10.90509572 0.12216435 -5.48231733 -0.06852897 0 0 Z " fill="#CA2439" transform="translate(702,901)"/>
<path d="M0 0 C0.33 0.99 0.66 1.98 1 3 C0.67 3.66 0.34 4.32 0 5 C14.19 5 28.38 5 43 5 C43 5.33 43 5.66 43 6 C27.66755906 7.13573637 12.36798951 7.10674496 -3 7 C-2.01 4.69 -1.02 2.38 0 0 Z " fill="#C12537" transform="translate(923,984)"/>
<path d="M0 0 C0.87454834 0.04713135 1.74909668 0.0942627 2.65014648 0.14282227 C4.06650391 0.21533203 4.06650391 0.21533203 5.51147461 0.28930664 C7.00130859 0.37341797 7.00130859 0.37341797 8.52124023 0.45922852 C9.51833008 0.51143555 10.51541992 0.56364258 11.54272461 0.61743164 C14.01501545 0.74755221 16.48694653 0.88253033 18.95874023 1.02172852 C18.95874023 1.35172852 18.95874023 1.68172852 18.95874023 2.02172852 C13.17887623 2.31001251 7.3988499 2.59470359 1.61865234 2.8762207 C-0.34330904 2.97226415 -2.30522454 3.06924993 -4.26708984 3.16723633 C-25.19065498 4.21101815 -25.19065498 4.21101815 -34.04125977 4.02172852 C-34.04125977 3.36172852 -34.04125977 2.70172852 -34.04125977 2.02172852 C-33.10741455 1.99667236 -32.17356934 1.97161621 -31.21142578 1.94580078 C-27.75800788 1.85085924 -24.30477017 1.75161594 -20.8515625 1.64941406 C-19.35486707 1.60601038 -17.85812038 1.56433939 -16.36132812 1.52441406 C-14.21411664 1.46684235 -12.06716455 1.40311136 -9.92016602 1.33813477 C-8.62667236 1.30147705 -7.33317871 1.26481934 -6.00048828 1.22705078 C-3.00340068 1.01910171 -2.71138613 0.02886178 0 0 Z " fill="#FFE2EE" transform="translate(734.041259765625,896.978271484375)"/>
<path d="M0 0 C15.01249286 -0.21277549 30.00122825 0.42827066 45 1 C45 1.33 45 1.66 45 2 C11.29182746 3.19388403 11.29182746 3.19388403 -2 3 C-1.34 2.67 -0.68 2.34 0 2 C0 1.34 0 0.68 0 0 Z " fill="#CD051D" transform="translate(874,812)"/>
<path d="M0 0 C8.86606897 -0.22012309 17.45193864 0.43964733 26.25 1.5 C27.48363281 1.64308594 28.71726562 1.78617188 29.98828125 1.93359375 C32.99295714 2.28297467 35.99675822 2.63853428 39 3 C37.68 4.32 36.36 5.64 35 7 C34.01 6.67 33.02 6.34 32 6 C32 5.34 32 4.68 32 4 C31.360625 4.185625 30.72125 4.37125 30.0625 4.5625 C29.381875 4.706875 28.70125 4.85125 28 5 C27.67 4.67 27.34 4.34 27 4 C24.51658199 3.78889481 22.05043287 3.62405205 19.5625 3.5 C12.26857585 3.13428793 12.26857585 3.13428793 10 2 C8.29636178 1.77377919 6.58671299 1.59111527 4.875 1.4375 C3.96492188 1.35371094 3.05484375 1.26992188 2.1171875 1.18359375 C1.41851563 1.12300781 0.71984375 1.06242188 0 1 C0 0.67 0 0.34 0 0 Z " fill="#C4182C" transform="translate(1228,902)"/>
<path d="M0 0 C5.91618634 0.45509126 10.90089977 1.91818581 16.484375 3.88671875 C21.41098056 5.44681051 26.42084112 6.5451083 31.47631836 7.60473633 C33.33154087 8.01041335 35.16839284 8.49836306 37 9 C37.495 9.99 37.495 9.99 38 11 C30.86677479 10.46537429 24.64096752 8.83479142 17.875 6.5625 C15.9768466 5.93793799 14.07841509 5.3142205 12.1796875 4.69140625 C10.8508252 4.25272217 10.8508252 4.25272217 9.49511719 3.80517578 C6.34944798 2.79006648 3.18632653 1.87822573 0 1 C0 0.67 0 0.34 0 0 Z " fill="#C61D30" transform="translate(1250,1163)"/>
<path d="M0 0 C0 5.11537505 -3.09978268 9.80501213 -6.41015625 13.62890625 C-7.58449939 14.77585946 -8.78994773 15.89078542 -10 17 C-10.33 17.66 -10.66 18.32 -11 19 C-11.66 19 -12.32 19 -13 19 C-13.061875 19.78375 -13.12375 20.5675 -13.1875 21.375 C-13.5896875 22.674375 -13.5896875 22.674375 -14 24 C-16.55078125 25.1640625 -16.55078125 25.1640625 -19 26 C-13.30893916 16.87871071 -6.5755292 8.48912807 0 0 Z " fill="#CB1A33" transform="translate(604,693)"/>
<path d="M0 0 C8.73107868 0.12926227 16.84652073 0.88830287 25.25 3.375 C25.96406006 3.58406982 26.67812012 3.79313965 27.41381836 4.00854492 C31.11265988 5.16916549 34.07923877 6.42551458 37 9 C36.67 9.66 36.34 10.32 36 11 C35.48953125 10.54625 34.9790625 10.0925 34.453125 9.625 C31.38080389 7.58983188 28.29118543 6.81680147 24.75 6 C24.05777344 5.83338867 23.36554688 5.66677734 22.65234375 5.49511719 C15.15396189 3.72860651 7.58583379 2.33155593 0 1 C0 0.67 0 0.34 0 0 Z " fill="#C62237" transform="translate(1348,831)"/>
<path d="M0 0 C0 0.66 0 1.32 0 2 C-3.81303892 3.19157466 -7.40099459 4.11775571 -11.375 4.5625 C-14.8036937 4.59793141 -14.8036937 4.59793141 -16 6 C-18.67058851 6.14115161 -21.32432238 6.04247107 -24 6 C-24 6.66 -24 7.32 -24 8 C-26.97 7.505 -26.97 7.505 -30 7 C-30 6.67 -30 6.34 -30 6 C-25.75166645 4.99282887 -21.50108076 3.99550625 -17.25 3 C-16.0434375 2.71382812 -14.836875 2.42765625 -13.59375 2.1328125 C-12.43359375 1.86210938 -11.2734375 1.59140625 -10.078125 1.3125 C-8.47565918 0.93544922 -8.47565918 0.93544922 -6.84082031 0.55078125 C-4 0 -4 0 0 0 Z " fill="#C92038" transform="translate(1152,1033)"/>
<path d="M0 0 C0.33 0 0.66 0 1 0 C1 4.95 1 9.9 1 15 C0.34 15 -0.32 15 -1 15 C-0.97679687 16.05960938 -0.95359375 17.11921875 -0.9296875 18.2109375 C-0.91093056 19.5989513 -0.89273028 20.9869727 -0.875 22.375 C-0.85824219 23.07367187 -0.84148437 23.77234375 -0.82421875 24.4921875 C-0.80655733 26.32897486 -0.89696739 28.16601963 -1 30 C-1.66 30.66 -2.32 31.32 -3 32 C-2.19148936 10.46808511 -2.19148936 10.46808511 0 0 Z " fill="#C92C3C" transform="translate(500,940)"/>
<path d="M0 0 C0 0.66 0 1.32 0 2 C-5.27106428 3.86917173 -10.46023169 5.42135579 -15.95703125 6.47265625 C-18.06749557 6.93634468 -18.06749557 6.93634468 -20.08984375 8.08203125 C-22.68496689 9.32917632 -24.29165772 8.7523173 -27 8 C-24.13982274 6.09321516 -22.23015119 5.37279265 -18.96484375 4.4921875 C-17.99095703 4.22792969 -17.01707031 3.96367188 -16.01367188 3.69140625 C-14.99853516 3.42199219 -13.98339844 3.15257812 -12.9375 2.875 C-11.91849609 2.59785156 -10.89949219 2.32070313 -9.84960938 2.03515625 C-2.28544489 0 -2.28544489 0 0 0 Z " fill="#C82234" transform="translate(878,518)"/>
<path d="M0 0 C0.33 0 0.66 0 1 0 C1 5.28 1 10.56 1 16 C7.27 16 13.54 16 20 16 C20 16.33 20 16.66 20 17 C9.605 17.495 9.605 17.495 -1 18 C-0.505 9.09 -0.505 9.09 0 0 Z " fill="#FAC1C5" transform="translate(584,891)"/>
<path d="M0 0 C0.94359375 0.20496094 1.8871875 0.40992188 2.859375 0.62109375 C10.91379116 2.31122726 18.76155627 3.55509336 27 4 C27 4.66 27 5.32 27 6 C17.27693372 6.3796425 8.27057976 4.88418037 -1 2 C-0.67 1.34 -0.34 0.68 0 0 Z " fill="#C82032" transform="translate(1257,1225)"/>
<path d="M0 0 C1.32 0 2.64 0 4 0 C4.66 0.99 5.32 1.98 6 3 C6.8971875 3.433125 6.8971875 3.433125 7.8125 3.875 C10.76239849 5.39209065 12.66389264 7.66389264 15 10 C17.16620544 11.29519995 17.16620544 11.29519995 19 12 C19 12.66 19 13.32 19 14 C20.32 14.66 21.64 15.32 23 16 C19.35838753 16 18.46867234 15.1451056 15.5859375 13.0078125 C14.74289062 12.38519531 13.89984375 11.76257812 13.03125 11.12109375 C12.1546875 10.46238281 11.278125 9.80367187 10.375 9.125 C9.04855469 8.14853516 9.04855469 8.14853516 7.6953125 7.15234375 C1.13687614 2.27375229 1.13687614 2.27375229 0 0 Z " fill="#C51D33" transform="translate(685,1395)"/>
<path d="M0 0 C0 0.33 0 0.66 0 1 C-1.98 1 -3.96 1 -6 1 C-6 1.99 -6 2.98 -6 4 C-6.66 4 -7.32 4 -8 4 C-8 3.34 -8 2.68 -8 2 C-8.886875 2.350625 -9.77375 2.70125 -10.6875 3.0625 C-16.34623246 4.73439823 -22.23193159 3.64186024 -28 3 C-28 2.67 -28 2.34 -28 2 C-24.83402429 1.65988375 -21.6671312 1.32916813 -18.5 1 C-17.613125 0.90460938 -16.72625 0.80921875 -15.8125 0.7109375 C-10.50765526 0.16485054 -5.33262848 -0.0996753 0 0 Z " fill="#FACBD3" transform="translate(1062,1500)"/>
<path d="M0 0 C7.91909556 2.45765035 15.41985296 5.66818573 23 9 C23 9.33 23 9.66 23 10 C20.36 10 17.72 10 15 10 C15 9.01 15 8.02 15 7 C14.33613281 6.80664062 13.67226562 6.61328125 12.98828125 6.4140625 C4.21792619 3.82776801 4.21792619 3.82776801 0 2 C0 1.34 0 0.68 0 0 Z " fill="#C51425" transform="translate(1045,1157)"/>
<path d="M0 0 C2.64 0 5.28 0 8 0 C8 0.66 8 1.32 8 2 C11.465 1.505 11.465 1.505 15 1 C15.33 1.99 15.66 2.98 16 4 C18.475 4.495 18.475 4.495 21 5 C21 5.66 21 6.32 21 7 C13.96354423 5.11380178 6.96640656 3.13072305 0 1 C0 0.67 0 0.34 0 0 Z " fill="#CD2136" transform="translate(1223,1155)"/>
<path d="M0 0 C1.65 0 3.3 0 5 0 C5.33 0.99 5.66 1.98 6 3 C6.99 3 7.98 3 9 3 C9 3.66 9 4.32 9 5 C10.65 5.33 12.3 5.66 14 6 C14 6.66 14 7.32 14 8 C16.97 8.495 16.97 8.495 20 9 C20.33 9.99 20.66 10.98 21 12 C15.84313143 10.53005148 11.65471168 8.21589873 7.125 5.4375 C6.43664063 5.02564453 5.74828125 4.61378906 5.0390625 4.18945312 C3.33910553 3.15902286 1.66662278 2.08351684 0 1 C0 0.67 0 0.34 0 0 Z " fill="#C7152D" transform="translate(1023,1068)"/>
<path d="M0 0 C0.33 0 0.66 0 1 0 C1.34011625 3.16597571 1.67083187 6.3328688 2 9.5 C2.09539062 10.386875 2.19078125 11.27375 2.2890625 12.1875 C2.83514946 17.49234474 3.0996753 22.66737152 3 28 C2.67 28 2.34 28 2 28 C-0.67493754 18.05588191 -1.28866825 10.21618925 0 0 Z " fill="#FAC2CB" transform="translate(497,1042)"/>
<path d="M0 0 C0.98613281 0.04833984 1.97226562 0.09667969 2.98828125 0.14648438 C4.53708984 0.2305957 4.53708984 0.2305957 6.1171875 0.31640625 C7.15746094 0.36861328 8.19773437 0.42082031 9.26953125 0.47460938 C11.84403866 0.60451571 14.41818046 0.73948877 16.9921875 0.87890625 C16.9921875 1.20890625 16.9921875 1.53890625 16.9921875 1.87890625 C9.01728622 3.20805646 1.05032031 2.96691984 -7.0078125 2.87890625 C-7.0078125 2.21890625 -7.0078125 1.55890625 -7.0078125 0.87890625 C-4.45798817 -0.39600591 -2.84315826 -0.14705991 0 0 Z " fill="#CD2135" transform="translate(1001.0078125,984.12109375)"/>
<path d="M0 0 C1.37478516 0.01740234 1.37478516 0.01740234 2.77734375 0.03515625 C3.69644531 0.04417969 4.61554688 0.05320312 5.5625 0.0625 C6.27277344 0.07410156 6.98304687 0.08570313 7.71484375 0.09765625 C7.71484375 0.42765625 7.71484375 0.75765625 7.71484375 1.09765625 C3.75882351 1.96278548 -0.20027422 2.81289432 -4.16015625 3.66015625 C-5.28808594 3.90701172 -6.41601562 4.15386719 -7.578125 4.40820312 C-8.65449219 4.63701172 -9.73085937 4.86582031 -10.83984375 5.1015625 C-11.83483887 5.31627197 -12.82983398 5.53098145 -13.85498047 5.75219727 C-16.28515625 6.09765625 -16.28515625 6.09765625 -18.28515625 5.09765625 C-13.14260507 2.63351714 -8.94687697 1.6833515 -3.28515625 1.09765625 C-2.28515625 0.09765625 -2.28515625 0.09765625 0 0 Z " fill="#C61B30" transform="translate(1078.28515625,972.90234375)"/>
<path d="M0 0 C2.27611875 3.87555354 3.12005537 8.04257204 4.125 12.375 C4.30675781 13.1175 4.48851562 13.86 4.67578125 14.625 C5.66554908 18.83709469 6.20759309 22.64054502 6 27 C5.34 26.67 4.68 26.34 4 26 C3.40576172 24.03808594 3.40576172 24.03808594 2.9296875 21.484375 C2.75566406 20.56269531 2.58164063 19.64101563 2.40234375 18.69140625 C2.14130859 17.23541016 2.14130859 17.23541016 1.875 15.75 C1.60236328 14.31720703 1.60236328 14.31720703 1.32421875 12.85546875 C0.51805865 8.49735512 -0.10232922 4.4448635 0 0 Z " fill="#C61B2F" transform="translate(1481,885)"/>
<path d="M0 0 C0.33 0.99 0.66 1.98 1 3 C0.01 3.33 -0.98 3.66 -2 4 C-2.12375 4.5775 -2.2475 5.155 -2.375 5.75 C-3.30033156 9.08119361 -5.50646759 10.68892118 -8 13 C-8.66 13.66 -9.32 14.32 -10 15 C-12.125 14.625 -12.125 14.625 -14 14 C-13.49210937 13.57589844 -12.98421875 13.15179687 -12.4609375 12.71484375 C-7.83373646 8.77219118 -3.84408054 4.70899866 0 0 Z " fill="#FEECE9" transform="translate(1359,1347)"/>
<path d="M0 0 C0.66 0.99 1.32 1.98 2 3 C-14.82352941 5.58823529 -14.82352941 5.58823529 -20 3 C-20 2.34 -20 1.68 -20 1 C-18.08574219 1.01740234 -18.08574219 1.01740234 -16.1328125 1.03515625 C-14.46354313 1.04453417 -12.79427217 1.05363437 -11.125 1.0625 C-10.28324219 1.07087891 -9.44148437 1.07925781 -8.57421875 1.08789062 C-7.76855469 1.09111328 -6.96289062 1.09433594 -6.1328125 1.09765625 C-5.38918457 1.10289307 -4.64555664 1.10812988 -3.87939453 1.11352539 C-1.90867432 1.11786636 -1.90867432 1.11786636 0 0 Z " fill="#D31F37" transform="translate(792,1192)"/>
<path d="M0 0 C1.48874629 3.96999011 0.93967313 7.9577854 0 12 C-0.96432076 13.68756133 -1.96210419 15.35666496 -3 17 C-3.71401232 20.19395026 -3.71401232 20.19395026 -4 23 C-4.66 22.67 -5.32 22.34 -6 22 C-5.37798054 19.45757096 -4.75248241 16.91608125 -4.125 14.375 C-3.95097656 13.66214844 -3.77695312 12.94929687 -3.59765625 12.21484375 C-2.57145662 8.07203784 -1.41209271 4.03273322 0 0 Z " fill="#C82436" transform="translate(519,852)"/>
<path d="M0 0 C4.53847198 1.34927545 8.31932246 3.19159348 12.375 5.625 C13.43460938 6.25664063 14.49421875 6.88828125 15.5859375 7.5390625 C16.38257813 8.02117187 17.17921875 8.50328125 18 9 C14.28125 10.1171875 14.28125 10.1171875 11.75 9.0625 C11.1725 8.711875 10.595 8.36125 10 8 C10 7.34 10 6.68 10 6 C9.030625 5.87625 8.06125 5.7525 7.0625 5.625 C6.051875 5.41875 5.04125 5.2125 4 5 C3.67 4.34 3.34 3.68 3 3 C1.68 3 0.36 3 -1 3 C-0.67 2.01 -0.34 1.02 0 0 Z " fill="#C51D32" transform="translate(878,1071)"/>
<path d="M0 0 C0.66 0.33 1.32 0.66 2 1 C0.57559353 4.56101618 -0.6613524 5.3306762 -4 7 C-5.0209375 8.299375 -5.0209375 8.299375 -6.0625 9.625 C-6.701875 10.40875 -7.34125 11.1925 -8 12 C-8.99 12 -9.98 12 -11 12 C-8.47295673 6.78797325 -4.38226641 3.6119868 0 0 Z " fill="#FDE9EF" transform="translate(611,839)"/>
<path d="M0 0 C5.31033517 -0.1931031 9.79265219 0.28880902 14.9453125 1.5546875 C17.33368225 2.07231897 19.56380218 2.15717405 22 2 C22.33 3.32 22.66 4.64 23 6 C21.26363281 5.58427734 21.26363281 5.58427734 19.4921875 5.16015625 C17.95315001 4.79416563 16.41408611 4.42828609 14.875 4.0625 C13.73417969 3.78889648 13.73417969 3.78889648 12.5703125 3.50976562 C8.39571566 2.52009827 4.24540161 1.64427021 0 1 C0 0.67 0 0.34 0 0 Z " fill="#CD1F35" transform="translate(867,1487)"/>
<path d="M0 0 C-0.99442805 2.5312714 -1.66349256 3.7857988 -3.98828125 5.265625 C-11.74175824 8.54945055 -11.74175824 8.54945055 -16 8 C-13.10414095 5.70351643 -10.1827969 3.95652443 -6.875 2.3125 C-5.57175781 1.65701172 -5.57175781 1.65701172 -4.2421875 0.98828125 C-2 0 -2 0 0 0 Z " fill="#FEDCE4" transform="translate(1229,1447)"/>
<path d="M0 0 C0.33 1.32 0.66 2.64 1 4 C0.55269531 4.36351562 0.10539063 4.72703125 -0.35546875 5.1015625 C-4.38793652 8.4547873 -7.76004454 11.87642033 -11 16 C-11.66 15.67 -12.32 15.34 -13 15 C-12.39671875 14.33613281 -11.7934375 13.67226563 -11.171875 12.98828125 C-10.37265625 12.10527344 -9.5734375 11.22226562 -8.75 10.3125 C-7.96109375 9.44238281 -7.1721875 8.57226562 -6.359375 7.67578125 C-4.15500436 5.17579137 -2.05866059 2.62054272 0 0 Z " fill="#C81B32" transform="translate(619,675)"/>
<path d="M0 0 C8.16240568 -0.33853295 15.95072024 0.70098079 24 2 C24 2.33 24 2.66 24 3 C21.31222198 3.0544207 18.62556788 3.09387266 15.9375 3.125 C15.18533203 3.14175781 14.43316406 3.15851563 13.65820312 3.17578125 C8.70672291 3.21865121 4.69585549 2.58399375 0 1 C0 0.67 0 0.34 0 0 Z " fill="#C81F30" transform="translate(1038,506)"/>
<path d="M0 0 C2.64 0 5.28 0 8 0 C8 0.33 8 0.66 8 1 C9.03125 1.12375 10.0625 1.2475 11.125 1.375 C14.62116846 1.93889814 17.68397627 2.78682059 21 4 C21 4.66 21 5.32 21 6 C13.80684375 4.83760783 6.93025566 3.25496388 0 1 C0 0.67 0 0.34 0 0 Z " fill="#C62133" transform="translate(1312,1181)"/>
<path d="M0 0 C0.66 0.33 1.32 0.66 2 1 C0.74568359 5.4946338 -0.78625645 8.59148411 -4 12 C-4.99 12.33 -5.98 12.66 -7 13 C-5.35821735 8.22390502 -2.73453298 4.20617096 0 0 Z " fill="#CD142D" transform="translate(861,1099)"/>
<path d="M0 0 C4.62 0 9.24 0 14 0 C14 0.33 14 0.66 14 1 C11.10496617 1.50505263 8.20912047 2.0042022 5.3125 2.5 C4.08756836 2.71462891 4.08756836 2.71462891 2.83789062 2.93359375 C-1.14978248 3.61165962 -4.93730404 4.19858392 -9 4 C-8.67 3.34 -8.34 2.68 -8 2 C-5.36 2 -2.72 2 0 2 C0 1.34 0 0.68 0 0 Z " fill="#FDD7DC" transform="translate(1080,1045)"/>
<path d="M0 0 C-6.78743178 2.81552726 -12.68889006 3.3689719 -20 3 C-17.23040385 0.23040385 -14.97306704 0.34450927 -11.125 -0.1875 C-9.89007812 -0.36667969 -8.65515625 -0.54585938 -7.3828125 -0.73046875 C-4.49405581 -0.96063528 -2.68714237 -0.95197757 0 0 Z " fill="#C9263B" transform="translate(926,510)"/>
<path d="M0 0 C0.99 0.33 1.98 0.66 3 1 C1.57250019 4.79049707 -0.16236542 8.27122456 -2.125 11.8125 C-2.93324219 13.27623047 -2.93324219 13.27623047 -3.7578125 14.76953125 C-4.37269531 15.87361328 -4.37269531 15.87361328 -5 17 C-5.66 15.68 -6.32 14.36 -7 13 C-6.01 12.34 -5.02 11.68 -4 11 C-3.27034634 8.43717258 -3.27034634 8.43717258 -3 6 C-2.34 6 -1.68 6 -1 6 C-1 5.34 -1 4.68 -1 4 C-0.34 4 0.32 4 1 4 C0.67 2.68 0.34 1.36 0 0 Z " fill="#C7162B" transform="translate(784,1079)"/>
<path d="M0 0 C3.73487777 0.4979837 5.81237635 0.87491756 9 3 C11.62531524 3.16713569 11.62531524 3.16713569 14 3 C14 3.99 14 4.98 14 6 C15.32 6.33 16.64 6.66 18 7 C13.72199024 8.42600325 11.13234078 6.45637064 7.3125 4.5625 C6.61060547 4.22412109 5.90871094 3.88574219 5.18554688 3.53710938 C3.45276294 2.70018652 1.72580248 1.85122607 0 1 C0 0.67 0 0.34 0 0 Z " fill="#CB1C32" transform="translate(777,1453)"/>
<path d="M0 0 C6.435 2.97 6.435 2.97 13 6 C12.34 6.66 11.68 7.32 11 8 C10.67 7.67 10.34 7.34 10 7 C7.32941149 6.85884839 4.67567762 6.95752893 2 7 C2 5.68 2 4.36 2 3 C1.34 2.67 0.68 2.34 0 2 C0 1.34 0 0.68 0 0 Z " fill="#C61023" transform="translate(738,1175)"/>
<path d="M0 0 C7.52592433 0.6377902 14.67098882 2.19889833 22 4 C22 4.66 22 5.32 22 6 C14.36945905 5.38955672 7.29810526 3.20378179 0 1 C0 0.67 0 0.34 0 0 Z " fill="#C61F35" transform="translate(1290,1175)"/>
<path d="M0 0 C0.99 0.33 1.98 0.66 3 1 C2.67 1.99 2.34 2.98 2 4 C1.34 4 0.68 4 0 4 C-0.33 5.258125 -0.66 6.51625 -1 7.8125 C-1.185625 8.52019531 -1.37125 9.22789062 -1.5625 9.95703125 C-2.1047007 12.14070009 -2.1047007 12.14070009 -2 15 C-3.98 15.99 -3.98 15.99 -6 17 C-4.33846988 11.14340094 -2.52958084 5.5409866 0 0 Z " fill="#C52032" transform="translate(965,893)"/>
<path d="M0 0 C-3.13411744 1.76663695 -5.95916637 2.48370989 -9.5 3.0625 C-13.3436187 3.67995714 -13.3436187 3.67995714 -17.09375 4.68359375 C-19.6246903 5.10368835 -20.85246627 4.30385977 -23 3 C-20.10496617 2.49494737 -17.20912047 1.9957978 -14.3125 1.5 C-13.08756836 1.28537109 -13.08756836 1.28537109 -11.83789062 1.06640625 C-7.85021752 0.38834038 -4.06269596 -0.19858392 0 0 Z " fill="#F7B9C2" transform="translate(656,830)"/>
<path d="M0 0 C6.16356805 1.6658292 11.48259656 4.87805286 17 8 C16.34 8.66 15.68 9.32 15 10 C10.05 7.36 5.1 4.72 0 2 C0 1.34 0 0.68 0 0 Z " fill="#C91B32" transform="translate(954,1113)"/>
<path d="M0 0 C1.46179688 0.08507812 1.46179688 0.08507812 2.953125 0.171875 C5.3445783 0.31254872 7.73485226 0.4638736 10.125 0.625 C10.125 0.955 10.125 1.285 10.125 1.625 C-3.24 2.12 -3.24 2.12 -16.875 2.625 C-16.875 2.295 -16.875 1.965 -16.875 1.625 C-11.1775518 -0.88801587 -6.05583024 -0.4102866 0 0 Z " fill="#F7B4C2" transform="translate(742.875,897.375)"/>
<path d="M0 0 C3.42771135 3.9173844 8 9.52151811 8 15 C7.34 15 6.68 15 6 15 C6 14.01 6 13.02 6 12 C5.01 12 4.02 12 3 12 C3 10.02 3 8.04 3 6 C2.34 6 1.68 6 1 6 C0.67 4.02 0.34 2.04 0 0 Z " fill="#C7172E" transform="translate(1433,762)"/>
<path d="M0 0 C9.59453303 6.15034169 9.59453303 6.15034169 13 10 C8.04649246 9.29235607 4.52370379 7.73386983 1.1875 3.9375 C0 2 0 2 0 0 Z " fill="#FEE0DF" transform="translate(688,1398)"/>
<path d="M0 0 C1.75471386 0.90761062 3.50359264 1.82650711 5.25 2.75 C6.22453125 3.26046875 7.1990625 3.7709375 8.203125 4.296875 C10.91493199 5.94819881 12.86796403 7.66491299 15 10 C12 10 12 10 9 9 C7.66666667 7.66666667 6.33333333 6.33333333 5 5 C4.0925 4.46375 3.185 3.9275 2.25 3.375 C1.5075 2.92125 0.765 2.4675 0 2 C0 1.34 0 0.68 0 0 Z " fill="#C71933" transform="translate(1259,579)"/>
<path d="M0 0 C5.61 0.33 11.22 0.66 17 1 C17 1.33 17 1.66 17 2 C10.95170514 2.89604368 5.1105424 3.11269443 -1 3 C-0.67 2.01 -0.34 1.02 0 0 Z " fill="#C51127" transform="translate(1045,1498)"/>
<path d="M0 0 C3 1 3 1 4.5 3.9375 C4.995 4.948125 5.49 5.95875 6 7 C6.99 7.66 7.98 8.32 9 9 C9 9.66 9 10.32 9 11 C8.34 11 7.68 11 7 11 C6.67 11.66 6.34 12.32 6 13 C4.02 8.71 2.04 4.42 0 0 Z " fill="#C91C33" transform="translate(551,1232)"/>
<path d="M0 0 C0.33 0.66 0.66 1.32 1 2 C1.66 2.33 2.32 2.66 3 3 C1.38405168 5.04119788 -0.2856382 7.04072937 -2 9 C-2.66 9 -3.32 9 -4 9 C-4 9.99 -4 10.98 -4 12 C-4.66 12 -5.32 12 -6 12 C-4.43358249 7.69235185 -2.31663844 3.93828536 0 0 Z " fill="#FDDEE5" transform="translate(753,1140)"/>
<path d="M0 0 C0.66 0.33 1.32 0.66 2 1 C-0.31 5.29 -2.62 9.58 -5 14 C-5.33 12.68 -5.66 11.36 -6 10 C-5.34 10 -4.68 10 -4 10 C-4 8.68 -4 7.36 -4 6 C-3.34 6 -2.68 6 -2 6 C-2 4.35 -2 2.7 -2 1 C-1.34 0.67 -0.68 0.34 0 0 Z " fill="#C7162E" transform="translate(807,1040)"/>
<path d="M0 0 C-0.33 0.66 -0.66 1.32 -1 2 C-3.328125 2.6328125 -3.328125 2.6328125 -6.25 3.125 C-7.20390625 3.29257813 -8.1578125 3.46015625 -9.140625 3.6328125 C-11.80099245 3.97444439 -14.32205635 4.06841462 -17 4 C-14.22246623 2.55441992 -11.45460092 1.34964587 -8.5 0.3125 C-7.7471875 0.04050781 -6.994375 -0.23148438 -6.21875 -0.51171875 C-3.76402507 -1.0519311 -2.35576662 -0.79774824 0 0 Z " fill="#C72036" transform="translate(1185,1025)"/>
<path d="M0 0 C0 0.66 0 1.32 0 2 C-0.99 2.33 -1.98 2.66 -3 3 C-3.99 4.485 -3.99 4.485 -5 6 C-8.4375 7.75 -8.4375 7.75 -12 9 C-12.99 8.67 -13.98 8.34 -15 8 C-12.8782637 6.66121428 -10.75294812 5.32884524 -8.625 4 C-8.02171875 3.6184375 -7.4184375 3.236875 -6.796875 2.84375 C-2.2265625 0 -2.2265625 0 0 0 Z " fill="#CA1B37" transform="translate(737,577)"/>
<path d="M0 0 C5.31027254 1.46032495 9.46330032 3.98320986 14 7 C12.68 7.33 11.36 7.66 10 8 C10 7.34 10 6.68 10 6 C9.4225 5.855625 8.845 5.71125 8.25 5.5625 C6.16666667 5.04166667 4.08333333 4.52083333 2 4 C2 3.34 2 2.68 2 2 C1.34 2 0.68 2 0 2 C0 1.34 0 0.68 0 0 Z " fill="#C81C34" transform="translate(1238,567)"/>
<path d="M0 0 C-0.66 0 -1.32 0 -2 0 C-2 0.66 -2 1.32 -2 2 C-7.72040011 2.8320582 -13.22240116 3.12036664 -19 3 C-19 2.67 -19 2.34 -19 2 C-16.58525383 1.46839543 -14.16891893 0.94945234 -11.75 0.4375 C-11.06808594 0.28603516 -10.38617187 0.13457031 -9.68359375 -0.02148438 C-6.18230962 -0.75233495 -3.39701827 -1.32203546 0 0 Z " fill="#FBD0D4" transform="translate(1106,1493)"/>
<path d="M0 0 C1.18504789 3.55514368 0.77142408 4.29496512 -0.6875 7.625 C-1.02136719 8.42164063 -1.35523438 9.21828125 -1.69921875 10.0390625 C-3 12 -3 12 -5.14453125 12.7734375 C-5.75683594 12.84820313 -6.36914062 12.92296875 -7 13 C-6.57847656 12.22914062 -6.15695312 11.45828125 -5.72265625 10.6640625 C-5.17480469 9.66117188 -4.62695312 8.65828125 -4.0625 7.625 C-3.51722656 6.62726563 -2.97195313 5.62953125 -2.41015625 4.6015625 C-1.5850241 3.07929654 -0.77435609 1.54871217 0 0 Z " fill="#C81B31" transform="translate(869,1085)"/>
<path d="M0 0 C0.66 0.33 1.32 0.66 2 1 C-0.31 4.96 -2.62 8.92 -5 13 C-5.66 11.68 -6.32 10.36 -7 9 C-6.01 9 -5.02 9 -4 9 C-4 7.68 -4 6.36 -4 5 C-3.34 5 -2.68 5 -2 5 C-2 3.68 -2 2.36 -2 1 C-1.34 0.67 -0.68 0.34 0 0 Z " fill="#C8162A" transform="translate(1431,1247)"/>
<path d="M0 0 C-5.16216577 3.75430238 -8.56014376 5.67081836 -15 5 C-12.30932731 3.20621821 -9.91421743 2.02686042 -6.9375 0.8125 C-5.62072266 0.26529297 -5.62072266 0.26529297 -4.27734375 -0.29296875 C-2 -1 -2 -1 0 0 Z " fill="#CA2639" transform="translate(1269,996)"/>
<path d="M0 0 C0 0.66 0 1.32 0 2 C-1.89385437 2.50744423 -3.79018666 3.00564574 -5.6875 3.5 C-6.74324219 3.7784375 -7.79898437 4.056875 -8.88671875 4.34375 C-11.71142672 4.9391715 -14.12836708 5.12786492 -17 5 C-14.22005549 3.14670366 -12.21743449 2.31436395 -9.0625 1.375 C-8.20785156 1.11460937 -7.35320312 0.85421875 -6.47265625 0.5859375 C-4 0 -4 0 0 0 Z " fill="#FCD3DB" transform="translate(1152,957)"/>
<path d="M0 0 C-2.60542016 1.73694677 -4.58342775 2.69100448 -7.5 3.6875 C-8.2734375 3.95949219 -9.046875 4.23148438 -9.84375 4.51171875 C-12 5 -12 5 -15 4 C-9.98010898 -0.11888494 -6.40141012 -0.51211281 0 0 Z " fill="#CA1126" transform="translate(1176,948)"/>
<path d="M0 0 C-0.33 0.99 -0.66 1.98 -1 3 C-5.95 3.66 -10.9 4.32 -16 5 C-16 4.34 -16 3.68 -16 3 C-13.70887834 2.49750857 -11.41708499 1.99807883 -9.125 1.5 C-7.84882812 1.2215625 -6.57265625 0.943125 -5.2578125 0.65625 C-2 0 -2 0 0 0 Z " fill="#C71A34" transform="translate(896,514)"/>
<path d="M0 0 C2.97 0.495 2.97 0.495 6 1 C2.2440786 4.42931954 -2.23466745 5.56429083 -7 7 C-7 6.34 -7 5.68 -7 5 C-6.34 5 -5.68 5 -5 5 C-5 4.34 -5 3.68 -5 3 C-3.35 3 -1.7 3 0 3 C0 2.01 0 1.02 0 0 Z " fill="#C91226" transform="translate(1182,1464)"/>
<path d="M0 0 C1.56393356 3.97376829 0.36145292 6.81377903 -0.9375 10.75 C-1.31777344 11.92046875 -1.69804688 13.0909375 -2.08984375 14.296875 C-2.39019531 15.18890625 -2.69054688 16.0809375 -3 17 C-3.33 17 -3.66 17 -4 17 C-3.38487182 11.99109914 -2.7282448 6.99367864 -2 2 C-1.34 2 -0.68 2 0 2 C0 1.34 0 0.68 0 0 Z " fill="#C2152C" transform="translate(1477,1135)"/>
<path d="M0 0 C1.18311902 3.54935705 0.78103361 4.24874572 -0.6875 7.5625 C-1.02136719 8.34753906 -1.35523438 9.13257813 -1.69921875 9.94140625 C-3.1992778 12.31537358 -4.41839592 12.99453315 -7 14 C-5.23570801 9.02790438 -2.6060834 4.56561939 0 0 Z " fill="#FDDBE1" transform="translate(787,1080)"/>
<path d="M0 0 C1.01527342 4.06109369 1.05430484 4.66966838 -0.4375 8.25 C-0.72496094 8.95640625 -1.01242187 9.6628125 -1.30859375 10.390625 C-1.53675781 10.92171875 -1.76492188 11.4528125 -2 12 C-2.66 12 -3.32 12 -4 12 C-4 12.66 -4 13.32 -4 14 C-4.66 13.67 -5.32 13.34 -6 13 C-4.02 8.71 -2.04 4.42 0 0 Z " fill="#FDDEE3" transform="translate(848,960)"/>
<path d="M0 0 C2.20665404 3.30998105 2.78262095 5.82021436 3.625 9.6875 C3.88539062 10.86699219 4.14578125 12.04648437 4.4140625 13.26171875 C4.60742188 14.16535156 4.80078125 15.06898438 5 16 C3 15 3 15 2.3671875 13.15234375 C2.20476562 12.42144531 2.04234375 11.69054687 1.875 10.9375 C1.62363281 9.83728516 1.62363281 9.83728516 1.3671875 8.71484375 C1.24601562 8.14894531 1.12484375 7.58304688 1 7 C0.34 7 -0.32 7 -1 7 C-0.67 4.69 -0.34 2.38 0 0 Z " fill="#CC273A" transform="translate(1470,845)"/>
<path d="M0 0 C1.60568666 0.28317926 3.20952047 0.57687791 4.8125 0.875 C6.15248047 1.11863281 6.15248047 1.11863281 7.51953125 1.3671875 C10 2 10 2 13 4 C4.80743982 4.63019694 4.80743982 4.63019694 1.4375 2 C0.7259375 1.01 0.7259375 1.01 0 0 Z " fill="#C9192E" transform="translate(1169,1203)"/>
<path d="M0 0 C0.66 0.33 1.32 0.66 2 1 C1.02526874 2.66926454 0.04510211 4.33535642 -0.9375 6 C-1.75541016 7.3921875 -1.75541016 7.3921875 -2.58984375 8.8125 C-3.05519531 9.534375 -3.52054688 10.25625 -4 11 C-4.33 11 -4.66 11 -5 11 C-5.3125 8.3125 -5.3125 8.3125 -5 5 C-2.5 2.125 -2.5 2.125 0 0 Z " fill="#FEE4E2" transform="translate(856,1104)"/>
<path d="M0 0 C0.6875 1.6875 0.6875 1.6875 1 4 C-0.72799116 7.81976994 -2.24719386 9.30618687 -6 11 C-5.37755401 9.72791378 -4.75193233 8.45738118 -4.125 7.1875 C-3.77695312 6.47980469 -3.42890625 5.77210937 -3.0703125 5.04296875 C-2 3 -2 3 0 0 Z " fill="#CE1830" transform="translate(876,1074)"/>
<path d="M0 0 C0.66 0.33 1.32 0.66 2 1 C-0.53645881 4.10011632 -3.15184135 5.0575938 -7 6 C-9.19140625 5.546875 -9.19140625 5.546875 -11 5 C-9.21289414 4.13633178 -7.4201535 3.28431406 -5.625 2.4375 C-4.62726563 1.96183594 -3.62953125 1.48617187 -2.6015625 0.99609375 C-1.74304687 0.66738281 -0.88453125 0.33867188 0 0 Z " fill="#C61D2F" transform="translate(1324,971)"/>
<path d="M0 0 C0.66 0.33 1.32 0.66 2 1 C0.4050992 2.19991599 -1.20126147 3.38461318 -2.8125 4.5625 C-3.70582031 5.22378906 -4.59914063 5.88507812 -5.51953125 6.56640625 C-6.33808594 7.03949219 -7.15664062 7.51257813 -8 8 C-8.99 7.67 -9.98 7.34 -11 7 C-7.53252172 4.22601737 -3.93597489 2.04087587 0 0 Z " fill="#C9142F" transform="translate(1363,951)"/>
<path d="M0 0 C2.00720923 0.28674418 4.0085944 0.61866701 6 1 C2.99559979 3.00293347 1.29006055 3.49271626 -2.1875 4.125 C-3.08855469 4.29257812 -3.98960938 4.46015625 -4.91796875 4.6328125 C-5.60503906 4.75398437 -6.29210938 4.87515625 -7 5 C-7 4.34 -7 3.68 -7 3 C-5.5459375 2.5359375 -5.5459375 2.5359375 -4.0625 2.0625 C-1.15934208 1.30476658 -1.15934208 1.30476658 0 0 Z " fill="#C71329" transform="translate(1142,956)"/>
<path d="M0 0 C3.96 0 7.92 0 12 0 C10.68 1.32 9.36 2.64 8 4 C7.01 3.67 6.02 3.34 5 3 C5 2.34 5 1.68 5 1 C3.68 1.33 2.36 1.66 1 2 C0.67 1.34 0.34 0.68 0 0 Z " fill="#C42037" transform="translate(1255,905)"/>
<path d="M0 0 C0.66 0.99 1.32 1.98 2 3 C1.3203125 5.69921875 1.3203125 5.69921875 0.125 8.6875 C-0.26429688 9.68136719 -0.65359375 10.67523437 -1.0546875 11.69921875 C-1.52261719 12.83810547 -1.52261719 12.83810547 -2 14 C-2.66 14 -3.32 14 -4 14 C-2.85248597 9.2460133 -1.61737483 4.62107093 0 0 Z " fill="#FBCED7" transform="translate(591,866)"/>
<path d="M0 0 C-0.33 0.99 -0.66 1.98 -1 3 C-1.66 3 -2.32 3 -3 3 C-3.20625 3.61875 -3.4125 4.2375 -3.625 4.875 C-5.54775888 7.84653645 -7.66594527 8.13024659 -11 9 C-9.33333333 7.33333333 -7.66666667 5.66666667 -6 4 C-5.278125 3.236875 -4.55625 2.47375 -3.8125 1.6875 C-2 0 -2 0 0 0 Z " fill="#C71930" transform="translate(678,619)"/>
<path d="M0 0 C6.48292295 -0.3669579 6.48292295 -0.3669579 8.9375 1.375 C10 3 10 3 10 5 C6.08788267 3.84414715 3.1254959 2.64465038 0 0 Z " fill="#CE1630" transform="translate(759,1444)"/>
<path d="M0 0 C-0.66 1.32 -1.32 2.64 -2 4 C-2.66 3.67 -3.32 3.34 -4 3 C-4.66 4.65 -5.32 6.3 -6 8 C-7.32 7.34 -8.64 6.68 -10 6 C-8.71283353 4.99421411 -7.42011342 3.99553202 -6.125 3 C-5.40570312 2.443125 -4.68640625 1.88625 -3.9453125 1.3125 C-2 0 -2 0 0 0 Z " fill="#FCDEE0" transform="translate(1286,1412)"/>
<path d="M0 0 C0.33 0.99 0.66 1.98 1 3 C-1.64 5.64 -4.28 8.28 -7 11 C-7.66 10.67 -8.32 10.34 -9 10 C-6.03 6.7 -3.06 3.4 0 0 Z " fill="#FEE0E1" transform="translate(1373,1332)"/>
<path d="M0 0 C0.66 0.99 1.32 1.98 2 3 C1.3203125 5.48046875 1.3203125 5.48046875 0.125 8.1875 C-0.26429687 9.08855469 -0.65359375 9.98960938 -1.0546875 10.91796875 C-1.36664062 11.60503906 -1.67859375 12.29210938 -2 13 C-2.66 13 -3.32 13 -4 13 C-3.52140759 11.39566191 -3.04210442 9.79153584 -2.5625 8.1875 C-2.29566406 7.29417969 -2.02882813 6.40085937 -1.75390625 5.48046875 C-1.19612127 3.64526945 -0.60655425 1.81966274 0 0 Z " fill="#FCD1DD" transform="translate(1469,1165)"/>
<path d="M0 0 C1 2 1 2 0.875 3.8125 C-0.37382118 6.93455295 -2.58679853 8.70745861 -5 11 C-5.33 11.66 -5.66 12.32 -6 13 C-6.66 12.67 -7.32 12.34 -8 12 C-5.36 8.04 -2.72 4.08 0 0 Z " fill="#C61936" transform="translate(825,1155)"/>
<path d="M0 0 C4.8274799 1.41292095 8.7162359 3.42974154 13 6 C10 7 10 7 7.51953125 6.00390625 C6.62621094 5.52824219 5.73289062 5.05257813 4.8125 4.5625 C3.91144531 4.08941406 3.01039063 3.61632813 2.08203125 3.12890625 C1.39496094 2.75636719 0.70789063 2.38382813 0 2 C0 1.34 0 0.68 0 0 Z " fill="#C7182F" transform="translate(935,1103)"/>
<path d="M0 0 C0.33 0.66 0.66 1.32 1 2 C-3.5 5 -3.5 5 -8 8 C-9.32 7.67 -10.64 7.34 -12 7 C-8.04 4.69 -4.08 2.38 0 0 Z " fill="#FDD3DB" transform="translate(1257,1430)"/>
<path d="M0 0 C4 1 4 1 5.30078125 2.5234375 C6.27666299 4.30941411 7.14108347 6.15492005 8 8 C7.67 8.99 7.34 9.98 7 11 C4.69 7.37 2.38 3.74 0 0 Z " fill="#C71E36" transform="translate(577,1277)"/>
<path d="M0 0 C0.66 0.33 1.32 0.66 2 1 C-0.475 6.94 -0.475 6.94 -3 13 C-3.92538169 9.29847322 -4.08174162 8.36541838 -3 5 C-2.34 5 -1.68 5 -1 5 C-0.67 3.35 -0.34 1.7 0 0 Z " fill="#C91A2D" transform="translate(1461,1183)"/>
<path d="M0 0 C3.63 0.33 7.26 0.66 11 1 C11.33 1.99 11.66 2.98 12 4 C10.5608866 3.71640113 9.12374482 3.42278601 7.6875 3.125 C6.88699219 2.96257812 6.08648438 2.80015625 5.26171875 2.6328125 C3 2 3 2 0 0 Z " fill="#CC2033" transform="translate(1176,1139)"/>
<path d="M0 0 C0.98052284 2.64741166 1.05565835 3.82446211 0.1875 6.5625 C-1 9 -1 9 -3 12 C-3.66 12 -4.32 12 -5 12 C-3.68938409 7.76570244 -2.05643741 3.92592596 0 0 Z " fill="#C5172A" transform="translate(934,963)"/>
<path d="M0 0 C0.33 0 0.66 0 1 0 C1.30769231 6.76923077 1.30769231 6.76923077 -1 10 C-2.98 10.99 -2.98 10.99 -5 12 C-3.35 8.04 -1.7 4.08 0 0 Z " fill="#C71C30" transform="translate(946,937)"/>
<path d="M0 0 C0.33 0.66 0.66 1.32 1 2 C-3.77357872 4.71391278 -7.34388537 6.56561146 -13 6 C-10.25906335 4.1727089 -7.86174676 3.06301822 -4.8125 1.875 C-3.91144531 1.52179687 -3.01039063 1.16859375 -2.08203125 0.8046875 C-1.39496094 0.53914062 -0.70789063 0.27359375 0 0 Z " fill="#C71C2D" transform="translate(816,537)"/>
<path d="M0 0 C1.32 0.33 2.64 0.66 4 1 C5.046875 3.06640625 5.046875 3.06640625 5.75 5.5625 C5.99234375 6.38878906 6.2346875 7.21507812 6.484375 8.06640625 C6.65453125 8.70449219 6.8246875 9.34257813 7 10 C6.01 10.495 6.01 10.495 5 11 C3.35 7.37 1.7 3.74 0 0 Z " fill="#C8132A" transform="translate(545,1220)"/>
<path d="M0 0 C-2.92965912 2.92965912 -5.680053 3.94133569 -9.8125 4.125 C-10.534375 4.08375 -11.25625 4.0425 -12 4 C-12 3.34 -12 2.68 -12 2 C-7.8803623 0.70756464 -4.33168317 -0.26252625 0 0 Z " fill="#C82139" transform="translate(1168,1029)"/>
<path d="M0 0 C0.66 0.33 1.32 0.66 2 1 C0.02 3.97 -1.96 6.94 -4 10 C-4.66 8.68 -5.32 7.36 -6 6 C-5.01 5.67 -4.02 5.34 -3 5 C-2.67 4.01 -2.34 3.02 -2 2 C-1.34 2 -0.68 2 0 2 C0 1.34 0 0.68 0 0 Z " fill="#FDE1E6" transform="translate(831,1143)"/>
<path d="M0 0 C0.33 0 0.66 0 1 0 C1.2295711 3.36704285 1.33943529 5.41370268 -0.375 8.375 C-0.91125 8.91125 -1.4475 9.4475 -2 10 C-2.66 10 -3.32 10 -4 10 C-2.8905928 6.51329166 -1.73662334 3.22515763 0 0 Z " fill="#FEDFE3" transform="translate(807,1043)"/>
<path d="M0 0 C-1.6875 2.0625 -1.6875 2.0625 -4 4 C-6.75 3.75 -6.75 3.75 -9 3 C-8 1 -8 1 -5.0625 -0.1875 C-2 -1 -2 -1 0 0 Z " fill="#CF1731" transform="translate(1231,1010)"/>
<path d="M0 0 C0.66 0.33 1.32 0.66 2 1 C0.35 4.3 -1.3 7.6 -3 11 C-4.19491898 6.22032407 -3.38305011 5.1245098 -1 1 C-0.67 0.67 -0.34 0.34 0 0 Z " fill="#FDD3E1" transform="translate(551,772)"/>
<path d="M0 0 C0.33 0.66 0.66 1.32 1 2 C0.02107593 3.76206333 -0.96385513 5.52176416 -2.0078125 7.24609375 C-3.07409939 9.13098672 -3.65780123 10.86125771 -4 13 C-4.66 12.67 -5.32 12.34 -6 12 C-4.43358249 7.69235185 -2.31663844 3.93828536 0 0 Z " fill="#C91D33" transform="translate(569,743)"/>
<path d="M0 0 C0 3.60777515 -0.9904432 5.06295544 -3 8 C-3.99 8.495 -3.99 8.495 -5 9 C-5.33 8.01 -5.66 7.02 -6 6 C-4.02 4.02 -2.04 2.04 0 0 Z " fill="#D92940" transform="translate(641,651)"/>
<path d="M0 0 C-0.66 1.65 -1.32 3.3 -2 5 C-3.98 5 -5.96 5 -8 5 C-8 4.34 -8 3.68 -8 3 C-2.25 0 -2.25 0 0 0 Z " fill="#C91327" transform="translate(769,559)"/>
<path d="M0 0 C2.0625 0.4375 2.0625 0.4375 4 1 C4 1.66 4 2.32 4 3 C0.535 4.485 0.535 4.485 -3 6 C-1.125 1.125 -1.125 1.125 0 0 Z " fill="#FEE2E6" transform="translate(773,552)"/>
<path d="M0 0 C0.33 0.99 0.66 1.98 1 3 C-1.35277269 5.72426311 -3.62496331 6.8141763 -7 8 C-5.50902342 4.2047869 -3.24299151 2.38957269 0 0 Z " fill="#FDE5E7" transform="translate(1323,1382)"/>
<path d="M0 0 C0.8125 1.625 0.8125 1.625 1 4 C-1.3125 7.25 -1.3125 7.25 -4 10 C-4.66 10 -5.32 10 -6 10 C-4.34832443 6.4213696 -2.21713508 3.25179812 0 0 Z " fill="#CC1D3B" transform="translate(815,1169)"/>
<path d="M0 0 C4.95 1.98 4.95 1.98 10 4 C9.67 4.66 9.34 5.32 9 6 C5.625 5.25 5.625 5.25 2 4 C1.34 2.68 0.68 1.36 0 0 Z " fill="#FDD5DB" transform="translate(1110,1113)"/>
<path d="M0 0 C-0.33 0.66 -0.66 1.32 -1 2 C-3.28515625 2.4140625 -3.28515625 2.4140625 -6.0625 2.625 C-6.98160156 2.69976563 -7.90070313 2.77453125 -8.84765625 2.8515625 C-9.55792969 2.90054688 -10.26820312 2.94953125 -11 3 C-4.33333333 -1.44444444 -4.33333333 -1.44444444 0 0 Z " fill="#CA1F2F" transform="translate(1243,1006)"/>
<path d="M0 0 C0.99 0.33 1.98 0.66 3 1 C1.02 3.31 -0.96 5.62 -3 8 C-4 5 -4 5 -3.1875 2.875 C-2 1 -2 1 0 0 Z " fill="#FEE4E6" transform="translate(603,691)"/>
<path d="M0 0 C2.31 0 4.62 0 7 0 C4.65085508 2.34914492 3.04320554 2.73140357 -0.125 3.625 C-1.49011719 4.01558594 -1.49011719 4.01558594 -2.8828125 4.4140625 C-3.58148437 4.60742188 -4.28015625 4.80078125 -5 5 C-5 4.34 -5 3.68 -5 3 C-3.68 3 -2.36 3 -1 3 C-0.67 2.01 -0.34 1.02 0 0 Z " fill="#FCD7DD" transform="translate(811,536)"/>
<path d="M0 0 C-0.875 3.875 -0.875 3.875 -2 5 C-3.66617115 5.04063832 -5.33388095 5.042721 -7 5 C-2.25 0 -2.25 0 0 0 Z " fill="#FDE4E0" transform="translate(1301,1401)"/>
<path d="M0 0 C0.99 0.33 1.98 0.66 3 1 C3 1.99 3 2.98 3 4 C3.66 4.66 4.32 5.32 5 6 C4.01 6 3.02 6 2 6 C-0.1875 3.5 -0.1875 3.5 -2 1 C-1.34 0.67 -0.68 0.34 0 0 Z " fill="#CC1229" transform="translate(657,1368)"/>
<path d="M0 0 C2.31 0.66 4.62 1.32 7 2 C7 3.65 7 5.3 7 7 C5.83040013 6.02433888 4.66438823 5.044375 3.5 4.0625 C2.8503125 3.51722656 2.200625 2.97195313 1.53125 2.41015625 C1.0259375 1.94480469 0.520625 1.47945312 0 1 C0 0.67 0 0.34 0 0 Z " fill="#D32B3F" transform="translate(639,1354)"/>
<path d="M0 0 C0.33 0.99 0.66 1.98 1 3 C0.01 3.33 -0.98 3.66 -2 4 C-2.73323796 6.01508358 -2.73323796 6.01508358 -3 8 C-3.66 8 -4.32 8 -5 8 C-4.45773019 4.20411134 -2.79872437 2.52788007 0 0 Z " fill="#FBCDCC" transform="translate(1359,1347)"/>
<path d="M0 0 C2.97 0 5.94 0 9 0 C9 1.32 9 2.64 9 4 C6.03 3.01 3.06 2.02 0 1 C0 0.67 0 0.34 0 0 Z " fill="#FCD6D7" transform="translate(1047,1157)"/>
<path d="M0 0 C1.04973814 4.19895255 0.72795155 6.79405774 0 11 C-0.99 11.33 -1.98 11.66 -3 12 C-2.01 8.04 -1.02 4.08 0 0 Z " fill="#FBCCD5" transform="translate(1477,1139)"/>
<path d="M0 0 C2.64 0.33 5.28 0.66 8 1 C8.33 2.32 8.66 3.64 9 5 C5.54074837 3.7508258 2.85306797 2.32472205 0 0 Z " fill="#FDDFDF" transform="translate(908,1087)"/>
<path d="M0 0 C0.33 1.32 0.66 2.64 1 4 C0.34 4 -0.32 4 -1 4 C-1 4.66 -1 5.32 -1 6 C-2.65 6.33 -4.3 6.66 -6 7 C-4.02 4.69 -2.04 2.38 0 0 Z " fill="#C90822" transform="translate(635,658)"/>
<path d="M0 0 C1.98 0 3.96 0 6 0 C6.33 0.66 6.66 1.32 7 2 C5.02 2.99 3.04 3.98 1 5 C0.67 3.35 0.34 1.7 0 0 Z " fill="#FCEAE9" transform="translate(728,576)"/>
<path d="M0 0 C4.455 1.98 4.455 1.98 9 4 C8.34 4.66 7.68 5.32 7 6 C4.875 5.625 4.875 5.625 3 5 C3 4.34 3 3.68 3 3 C2.01 2.67 1.02 2.34 0 2 C0 1.34 0 0.68 0 0 Z " fill="#C91830" transform="translate(1206,550)"/>
<path d="M0 0 C2.125 0.9375 2.125 0.9375 4 2 C-1.75 5 -1.75 5 -4 5 C-2.25 1.125 -2.25 1.125 0 0 Z " fill="#C80F22" transform="translate(1219,1448)"/>
<path d="M0 0 C0.66 0 1.32 0 2 0 C4.1875 2.25 4.1875 2.25 6 5 C5.67 6.32 5.34 7.64 5 9 C3.35 6.03 1.7 3.06 0 0 Z " fill="#CB1735" transform="translate(571,1267)"/>
<path d="M0 0 C2.18975773 3.28463659 2.99806563 6.20696275 4 10 C3.01 10 2.02 10 1 10 C0.37542727 6.56484998 0 3.50935186 0 0 Z " fill="#FAC8CE" transform="translate(528,1181)"/>
<path d="M0 0 C2.125 0.375 2.125 0.375 4 1 C4 1.66 4 2.32 4 3 C5.32 3 6.64 3 8 3 C8 3.66 8 4.32 8 5 C4.7 4.01 1.4 3.02 -2 2 C-1.34 1.34 -0.68 0.68 0 0 Z " fill="#FBD6D9" transform="translate(1058,1160)"/>
<path d="M0 0 C3.91211733 1.15585285 6.8745041 2.35534962 10 5 C9.01 5.33 8.02 5.66 7 6 C7 5.34 7 4.68 7 4 C4.69 3.67 2.38 3.34 0 3 C0 2.01 0 1.02 0 0 Z " fill="#C7152C" transform="translate(1219,557)"/>
<path d="M0 0 C2.97 0 5.94 0 9 0 C9.33 1.32 9.66 2.64 10 4 C6.7 3.01 3.4 2.02 0 1 C0 0.67 0 0.34 0 0 Z " fill="#FACACF" transform="translate(1173,536)"/>
<path d="M0 0 C0 0.66 0 1.32 0 2 C-3.13498292 3.85776765 -5.37471432 4.20140476 -9 4 C-6.10130984 1.70103884 -3.84906588 0 0 0 Z " fill="#FDD1DC" transform="translate(1200,1461)"/>
<path d="M0 0 C1.32 0.33 2.64 0.66 4 1 C4.66 3.31 5.32 5.62 6 8 C1.125 3.375 1.125 3.375 0 0 Z " fill="#C3192A" transform="translate(603,1312)"/>
<path d="M0 0 C0.66 1.32 1.32 2.64 2 4 C-0.97 6.475 -0.97 6.475 -4 9 C-2.80100302 5.9168649 -1.52299523 2.93720508 0 0 Z " fill="#FBD4DE" transform="translate(1434,1244)"/>
<path d="M0 0 C0.33 0.66 0.66 1.32 1 2 C1.66 2.33 2.32 2.66 3 3 C1.02 3.99 1.02 3.99 -1 5 C-1 5.99 -1 6.98 -1 8 C-1.66 8 -2.32 8 -3 8 C-1.125 2.25 -1.125 2.25 0 0 Z " fill="#FED9E3" transform="translate(1444,1225)"/>
<path d="M0 0 C3 3.75 3 3.75 3 6 C2.01 6.33 1.02 6.66 0 7 C-1.125 2.25 -1.125 2.25 0 0 Z " fill="#FCE3E2" transform="translate(545,1221)"/>
<path d="M0 0 C1 2 1 2 0.375 4.0625 C-1 6 -1 6 -3.625 6.75 C-4.800625 6.87375 -4.800625 6.87375 -6 7 C-4.02 4.69 -2.04 2.38 0 0 Z " fill="#CA223B" transform="translate(808,1179)"/>
<path d="M0 0 C0.66 0 1.32 0 2 0 C0.60667426 3.36720387 -0.9789286 4.9859524 -4 7 C-3.67 5.35 -3.34 3.7 -3 2 C-2.01 2 -1.02 2 0 2 C0 1.34 0 0.68 0 0 Z " fill="#FEE4E8" transform="translate(807,1177)"/>
<path d="M0 0 C1 3 1 3 0 6 C-2.0625 7.1875 -2.0625 7.1875 -4 8 C-2.87548273 5.0280615 -1.77706209 2.66559313 0 0 Z " fill="#CB1730" transform="translate(839,1134)"/>
<path d="M0 0 C1.90401138 1.90401138 2.93520439 3.33425686 3.19921875 6.046875 C3.1886578 8.03233273 3.09915043 10.0169914 3 12 C2.67 12 2.34 12 2 12 C0.70756464 7.8803623 -0.26252625 4.33168317 0 0 Z " fill="#FAD8DB" transform="translate(497,1058)"/>
<path d="M0 0 C0.66 0.33 1.32 0.66 2 1 C0.68 3.64 -0.64 6.28 -2 9 C-2.66 7.68 -3.32 6.36 -4 5 C-2.68 3.35 -1.36 1.7 0 0 Z " fill="#FDDAE8" transform="translate(941,945)"/>
<path d="M0 0 C3.96 1.98 3.96 1.98 8 4 C8 4.33 8 4.66 8 5 C6.35 5 4.7 5 3 5 C3 4.34 3 3.68 3 3 C2.01 2.67 1.02 2.34 0 2 C0 1.34 0 0.68 0 0 Z " fill="#C82437" transform="translate(1230,562)"/>
<path d="M0 0 C-0.33 0.66 -0.66 1.32 -1 2 C-3.9375 2.75 -3.9375 2.75 -7 3 C-7.66 2.34 -8.32 1.68 -9 1 C-5.8035914 -0.06546953 -3.34252724 -0.07427838 0 0 Z " fill="#C81323" transform="translate(860,524)"/>
</svg>
